{"title":"The Art Of Getting By 2011 PPVRip XViD DTRG","uid":6647225,"size":737363093,"categoryP":"video","categoryS":"movies","magnet":"?xt=urn:btih:223dd5d7301175a8d986179ff5868552f5ae4258&amp;dn=The+Art+Of+Getting+By+2011+PPVRip+XViD+DTRG&amp;tr=udp%3A%2F%2Ftracker.openbittorrent.com%3A80&amp;tr=udp%3A%2F%2Fopen.demonii.com%3A1337&amp;tr=udp%3A%2F%2Ftracker.coppersurfer.tk%3A6969&amp;tr=udp%3A%2F%2Fexodus.desync.com%3A6969","seeders":0,"leechers":1,"uploader":"SAFCukO09","files":3,"time":1314991965,"description":"Format : AVI\nFormat/Info : Audio Video Interleave\nFile size : 703 MiB\nDuration : 1h 22mn\nOverall bit rate : 1 188 Kbps\nWriting library : VirtualDub build 32842/release\n\nVideo\nID : 0\nFormat : MPEG-4 Visual\nFormat profile : Advanced Simple@L5\nFormat settings, BVOP : 2\nFormat settings, QPel : No\nFormat settings, GMC : No warppoints\nFormat settings, Matrix : Default (H.263)\nMuxing mode : Packed bitstream\nCodec ID : XVID\nCodec ID/Hint : XviD\nDuration : 1h 22mn\nBit rate : 1 049 Kbps\nWidth : 624 pixels\nHeight : 358 pixels\nDisplay aspect ratio : 16:9\nFrame rate : 29.970 fps\nColor space : YUV\nChroma subsampling : 4:2:0\nBit depth : 8 bits\nScan type : Progressive\nCompression mode : Lossy\nBits/(Pixel*Frame) : 0.157\nStream size : 621 MiB (88%)\nWriting library : XviD 64\n\nAudio\nID : 1\nFormat : MPEG Audio\nFormat version : Version 1\nFormat profile : Layer 3\nMode : Joint stereo\nMode extension : MS Stereo\nCodec ID : 55\nCodec ID/Hint : MP3\nDuration : 1h 22mn\nBit rate mode : Constant\nBit rate : 128 Kbps\nChannel(s) : 2 channels\nSampling rate : 44.1 KHz\nCompression mode : Lossy\nStream size : 75.7 MiB (11%)\nAlignment : Split accross interleaves\nInterleave, duration : 33 ms (1.00 video frame)\nInterleave, preload duration : 500 ms\nWriting library : LAME3.98r\nEncoding settings : -m j -V 4 -q 2 -lowpass 17 -b 128\n\n\n\n\n\n\n &lt;a href=&quot;\nhttp://www.imdb.com/title/tt1645080/&quot; rel=&quot;nofollow&quot; target=&quot;_NEW&quot;&gt;\nhttp://www.imdb.com/title/tt1645080/&lt;/a&gt;\n\n\n\n\n\n\n\n\n\nGeorge, a lonely and fatalistic teen who's made it all the way to his senior year without ever having done a real day of work, is befriended by Sally, a popular but complicated girl who recognizes in him a kindred spirit.\nDirector:\nGavin Wiesen\nWriter:\nGavin Wiesen\nStars:\nFreddie Highmore, Emma Roberts and Michael Angarano\n","torrent":{"xt":"urn:btih:223dd5d7301175a8d986179ff5868552f5ae4258","amp;dn":"The+Art+Of+Getting+By+2011+PPVRip+XViD+DTRG","amp;tr":["udp%3A%2F%2Ftracker.openbittorrent.com%3A80","udp%3A%2F%2Fopen.demonii.com%3A1337","udp%3A%2F%2Ftracker.coppersurfer.tk%3A6969","udp%3A%2F%2Fexodus.desync.com%3A6969"],"infoHash":"223dd5d7301175a8d986179ff5868552f5ae4258","infoHashBuffer":{"type":"Buffer","data":[34,61,213,215,48,17,117,168,217,134,23,159,245,134,133,82,245,174,66,88]},"announce":[],"urlList":[]}}